# xmcd
#
# Track frame offsets: 
#        150
#        19600
#        42900
#        60045
#        82515
#        96830
#        117127
#        141222
#        167567
#        190190
#
# Disc length: 2987 seconds
#
# Revision: 1
# Processed by: cddbd v1.4PL0 Copyright (c) Steve Scherf et al.
# Submitted via: ExactAudioCopy v0.90b3
#
DISCID=6a0ba90a
DTITLE=Various Artist - Simplest Pleasures Free
DYEAR=2001
DGENRE=Club
TTITLE0=All I Want
TTITLE1=sa
TTITLE2=Passport
TTITLE3=be
TTITLE4=Congenito
TTITLE5=son
TTITLE6=Honeybee Thought About The Meaning Of Life
TTITLE7=a
TTITLE8=Aqua
TTITLE9=a
EXTD=
EXTT0=
EXTT1=
EXTT2=
EXTT3=
EXTT4=
EXTT5=
EXTT6=
EXTT7=
EXTT8=
EXTT9=
PLAYORDER=
